<?xml version="1.0" standalone="no"?>
<!DOCTYPE svg PUBLIC "-//W3C//DTD SVG 20010904//EN"
 "http://www.w3.org/TR/2001/REC-SVG-20010904/DTD/svg10.dtd">
<svg version="1.0" xmlns="http://www.w3.org/2000/svg"
 width="1239.000000pt" height="1280.000000pt" viewBox="0 0 1239.000000 1280.000000"
 preserveAspectRatio="xMidYMid meet">
<g transform="translate(0.000000,1280.000000) scale(0.100000,-0.100000)"
fill="#000000" stroke="none">
<path d="M10075 12790 c-22 -4 -71 -13 -110 -19 -235 -39 -481 -171 -674 -361
-153 -150 -276 -389 -326 -630 -21 -98 -24 -307 -6 -411 28 -168 110 -375 202
-510 54 -81 204 -236 289 -301 97 -74 265 -152 415 -194 278 -77 575 -52 830
71 303 146 541 404 648 702 37 103 57 219 64 373 10 237 -21 380 -128 595
-121 243 -328 447 -572 566 -191 92 -485 148 -632 119z"/>
<path d="M7040 11583 c-353 -15 -573 -38 -810 -84 -390 -76 -769 -193 -1099
-338 -85 -37 -107 -51 -109 -69 -2 -13 14 -55 36 -95 57 -103 539 -939 697
-1207 72 -124 160 -277 195 -340 94 -170 96 -173 136 -165 19 3 107 29 196 56
182 57 286 81 439 104 254 38 768 36 989 -5 349 -64 726 -195 982 -342 299
-171 446 -286 728 -568 193 -193 250 -266 425 -545 172 -274 300 -611 395
-1036 l22 -96 60 -7 c85 -8 1974 -7 2023 2 31 6 40 12 39 27 -4 51 -56 412
-75 510 -49 266 -166 662 -286 965 -72 182 -232 507 -345 700 -139 237 -375
556 -586 792 l-105 117 -36 -15 c-220 -95 -329 -127 -556 -165 -120 -21 -140
-21 -285 -11 -254 19 -389 49 -585 129 -318 129 -577 325 -776 588 -185 243
-302 541 -356 905 -10 68 -15 71 -193 104 -417 77 -790 105 -1160 89z"/>
<path d="M4074 10544 c-267 -201 -441 -358 -658 -592 -201 -218 -339 -387
-483 -593 -189 -271 -288 -442 -433 -749 -130 -274 -280 -670 -267 -704 3 -8
45 -46 94 -86 377 -310 582 -643 675 -1095 20 -96 23 -138 22 -330 -1 -197 -4
-233 -27 -341 -51 -239 -139 -456 -262 -639 -70 -105 -256 -308 -394 -431 -61
-54 -111 -99 -111 -101 0 -18 95 -292 147 -423 172 -439 499 -986 813 -1360
199 -238 457 -498 685 -691 110 -92 268 -212 313 -236 33 -18 33 -18 51 6 35
46 211 340 413 691 413 716 611 1063 615 1081 4 13 -50 75 -204 232 -237 242
-310 328 -430 510 -237 358 -407 794 -485 1242 -20 118 -22 162 -22 480 0 294
2 365 17 445 95 506 274 939 543 1316 112 156 212 272 397 456 103 103 187
194 187 203 0 9 -12 39 -26 68 -29 56 -268 470 -394 682 -43 72 -184 317 -315
545 -246 431 -291 503 -317 508 -8 2 -73 -41 -144 -94z"/>
<path d="M1056 7619 c-278 -41 -563 -197 -744 -409 -165 -195 -259 -415 -302
-711 -33 -224 54 -556 205 -789 61 -93 225 -258 325 -327 422 -289 941 -299
1365 -25 370 238 575 610 575 1044 0 341 -110 605 -355 854 -203 206 -403 316
-653 359 -92 16 -318 18 -416 4z"/>
<path d="M10373 5953 c-96 -3 -113 -6 -117 -21 -2 -9 -19 -83 -36 -165 -100
-470 -303 -898 -610 -1288 -98 -123 -360 -387 -480 -483 -375 -299 -891 -538
-1340 -620 -248 -45 -545 -63 -798 -47 -286 19 -444 48 -741 140 -90 28 -172
51 -181 51 -24 0 -60 -58 -316 -505 -119 -209 -301 -524 -404 -700 -267 -460
-328 -567 -335 -597 -6 -25 -3 -29 55 -58 297 -150 817 -309 1253 -384 320
-55 401 -61 872 -61 404 0 454 2 615 23 191 26 486 77 537 93 35 11 47 37 58
124 66 528 363 999 813 1290 97 62 295 156 409 194 175 58 269 73 493 78 299
7 487 -23 735 -117 58 -22 114 -40 124 -40 49 0 361 375 557 668 403 604 671
1276 788 1977 12 71 40 274 59 420 2 18 -6 21 -63 26 -64 7 -1732 8 -1947 2z"/>
<path d="M9968 2464 c-252 -45 -477 -163 -658 -344 -425 -424 -487 -1065 -152
-1573 54 -83 196 -225 307 -310 143 -108 329 -180 560 -218 135 -23 137 -23
266 -5 343 47 546 142 760 355 185 186 301 401 350 651 19 97 16 377 -5 474
-52 240 -166 449 -340 622 -188 188 -410 303 -673 349 -105 18 -311 18 -415
-1z"/>
</g>
</svg>
