<?xml version="1.0" standalone="no"?>
<svg xmlns="http://www.w3.org/2000/svg" viewBox="0 0 209.88 29" width="209.88" height="29"><g fill="#81a0e1" color="#81a0e1" transform="translate(0, 0) scale(0.2265625)"><svg width="128.0" height="128.0" x="0.0" y="0.0" viewBox="0 0 128 128"><title></title><path d="M92.11035,45H35.88873A1.87818,1.87818,0,0,0,34,46.86707V81.132A1.87809,1.87809,0,0,0,35.88873,83H56v4H52a2,2,0,0,0,0,4H76a2,2,0,0,0,0-4H72V83H92.11035A1.87834,1.87834,0,0,0,94,81.132v-34.265A1.87842,1.87842,0,0,0,92.11035,45ZM60,87V83h8v4Zm30-8H38V49H90Z"></path><path d="M.98242,23.22168l11,6.5a1.99936,1.99936,0,0,0,2.03516,0l11-6.5A2.00057,2.00057,0,0,0,26,21.5V8.5a2.00057,2.00057,0,0,0-.98242-1.72168l-11-6.5a1.99936,1.99936,0,0,0-2.03516,0l-11,6.5A2.00057,2.00057,0,0,0,0,8.5v13A2.00057,2.00057,0,0,0,.98242,23.22168ZM4,9.64111l9-5.31787,9,5.31787V20.35889l-9,5.31787L4,20.35889Z"></path><path d="M25.49512,29.67139a2.00015,2.00015,0,0,0-2.99023,2.65723l8,9a2.00015,2.00015,0,0,0,2.99023-2.65723Z"></path><circle cx="13" cy="15" r="2"></circle><path d="M127.01758,6.77832l-11-6.5a1.99936,1.99936,0,0,0-2.03516,0l-11,6.5A2.00056,2.00056,0,0,0,102,8.5v13a2.00056,2.00056,0,0,0,.98242,1.72168l11,6.5a1.99936,1.99936,0,0,0,2.03516,0l11-6.5A2.00056,2.00056,0,0,0,128,21.5V8.5A2.00056,2.00056,0,0,0,127.01758,6.77832ZM124,20.35889l-9,5.31787-9-5.31787V9.64111l9-5.31787,9,5.31787Z"></path><path d="M95.999,42a1.99544,1.99544,0,0,0,1.49609-.67139l8-9a2.00015,2.00015,0,0,0-2.99023-2.65723l-8,9A2,2,0,0,0,95.999,42Z"></path><circle cx="115" cy="15" r="2"></circle><path d="M25.01758,104.77832l-11-6.5a1.99936,1.99936,0,0,0-2.03516,0l-11,6.5A2.00057,2.00057,0,0,0,0,106.5v13a2.00057,2.00057,0,0,0,.98242,1.72168l11,6.5a1.99936,1.99936,0,0,0,2.03516,0l11-6.5A2.00057,2.00057,0,0,0,26,119.5v-13A2.00057,2.00057,0,0,0,25.01758,104.77832ZM22,118.35889l-9,5.31787-9-5.31787V107.64111l9-5.31787,9,5.31787Z"></path><path d="M30.50488,86.67139l-8,9a2.00015,2.00015,0,0,0,2.99023,2.65723l8-9a2.00015,2.00015,0,0,0-2.99023-2.65723Z"></path><circle cx="13" cy="113" r="2"></circle><path d="M127.01758,104.77832l-11-6.5a1.99936,1.99936,0,0,0-2.03516,0l-11,6.5A2.00057,2.00057,0,0,0,102,106.5v13a2.00057,2.00057,0,0,0,.98242,1.72168l11,6.5a1.99936,1.99936,0,0,0,2.03516,0l11-6.5A2.00057,2.00057,0,0,0,128,119.5v-13A2.00057,2.00057,0,0,0,127.01758,104.77832ZM124,118.35889l-9,5.31787-9-5.31787V107.64111l9-5.31787,9,5.31787Z"></path><path d="M104.001,99a2,2,0,0,0,1.49414-3.32861l-8-9a2.00015,2.00015,0,0,0-2.99023,2.65723l8,9A1.99544,1.99544,0,0,0,104.001,99Z"></path><circle cx="115" cy="113" r="2"></circle><path d="M42.21094,61.89453a1.99948,1.99948,0,0,0,2.68359.89453l6-3a2.00042,2.00042,0,0,0,0-3.57812l-6-3a2.00023,2.00023,0,0,0-1.78906,3.57813L45.52832,58l-2.42285,1.21094A1.99993,1.99993,0,0,0,42.21094,61.89453Z"></path><path d="M54,66h6a2,2,0,0,0,0-4H54a2,2,0,0,0,0,4Z"></path></svg></g><line x1="41" y1="1" x2="41" y2="28" stroke="#0060b2" stroke-linecap="round"></line><path fill="#0060b2" fill-rule="nonzero" d="M11.26 15.96L11.26 18.94L5.21 18.94Q2.33 18.94 1.16 17.94Q0 16.94 0 14.42L0 14.42L0 1.85L11.26 1.85L11.26 4.82L3.34 4.82L3.34 8.83L8.88 8.83L8.64 11.81L3.34 11.81L3.34 14.18Q3.34 15.19 3.79 15.58Q4.25 15.96 5.45 15.96L5.45 15.96L11.26 15.96ZM27.14 18.94L27.14 8.74L24.07 15.22Q23.40 16.51 22.40 16.51Q21.41 16.51 20.74 15.14L20.74 15.14L17.62 8.74L17.62 18.94L14.28 18.94L14.28 1.85L17.57 1.85L22.39 11.71L27.19 1.85L30.48 1.85L30.48 18.94L27.14 18.94ZM41.47 3.29L46.94 18.94L43.46 18.94L42.50 15.98L36.77 15.98L35.83 18.94L32.35 18.94L37.82 3.29Q38.18 2.47 38.63 2.16Q39.07 1.85 39.72 1.85Q40.37 1.85 40.76 2.14Q41.16 2.42 41.47 3.29L41.47 3.29ZM37.61 13.18L41.74 13.18L39.72 6.41L37.61 13.18ZM62.18 10.32L62.18 10.32L62.21 12.17Q62.11 13.92 61.78 15.12Q61.44 16.32 60.46 17.30L60.46 17.30Q58.82 18.94 55.70 18.94L55.70 18.94Q52.03 18.94 50.66 17.96Q49.30 16.99 49.30 14.45L49.30 14.45L49.30 1.85L55.94 1.85Q58.82 1.85 60.46 3.48L60.46 3.48Q61.78 4.80 62.02 6.70L62.02 6.70Q62.18 8.04 62.18 10.32ZM58.13 14.90Q58.58 14.35 58.72 13.38Q58.85 12.41 58.85 10.34Q58.85 8.28 58.72 7.36Q58.58 6.43 58.13 5.88L58.13 5.88Q57.26 4.82 55.63 4.82L55.63 4.82L52.63 4.82L52.63 14.28Q52.63 15.24 53.28 15.60Q53.93 15.96 55.60 15.96Q57.26 15.96 58.13 14.90L58.13 14.90ZM75.65 15.96L75.65 18.94L70.56 18.94Q67.68 18.94 66.40 17.82Q65.11 16.70 65.11 14.18L65.11 14.18L65.11 1.85L68.45 1.85L68.45 14.18Q68.45 15.19 68.90 15.58Q69.36 15.96 70.56 15.96L70.56 15.96L75.65 15.96ZM94.58 11.71L94.58 11.71Q94.58 17.06 91.82 18.55L91.82 18.55Q90.70 19.15 89.06 19.15L89.06 19.15L86.76 17.66L86.76 23.02L83.64 23.02L83.64 5.33L89.78 5.33Q92.57 5.33 93.58 6.90Q94.58 8.47 94.58 11.71ZM91.46 12.19L91.46 12.19Q91.46 8.14 88.87 8.14L88.87 8.14L86.76 8.14L86.76 14.50L88.87 15.86Q90.26 15.86 90.86 14.99Q91.46 14.11 91.46 12.19ZM100.08 0.89L100.08 18.94L96.96 18.96L96.96 0.89L100.08 0.89ZM113.69 5.23L113.69 18.94L111.36 18.94L110.64 17.30L106.80 19.08Q105.19 19.08 104.00 17.89Q102.82 16.70 102.82 14.42L102.82 14.42L102.82 5.23L105.94 5.23L105.94 13.75Q105.94 16.03 107.76 16.03L107.76 16.03L110.57 14.52L110.57 5.23L113.69 5.23ZM120.62 5.33L123.91 5.33L127.03 5.14L127.03 18.31Q127.03 20.59 125.75 21.80Q124.46 23.02 121.94 23.02L121.94 23.02Q120 23.02 118.54 22.25L118.54 22.25Q117.77 21.86 117.31 21.10Q116.86 20.33 116.86 19.27L116.86 19.27L119.76 19.13Q119.76 19.80 120.24 20.09Q120.72 20.38 121.88 20.38Q123.05 20.38 123.47 19.80Q123.89 19.22 123.89 18.14L123.89 18.14L124.01 16.08L120.65 17.88Q117.89 17.88 116.93 16.01L116.93 16.01Q116.06 14.35 116.06 11.95L116.06 11.95Q116.06 9.10 116.50 7.92L116.50 7.92Q116.95 6.62 117.79 6.05L117.79 6.05Q118.87 5.33 120.62 5.33L120.62 5.33ZM121.54 14.59L123.91 13.37L123.91 8.14L121.54 8.14Q120.19 8.14 119.69 9.05Q119.18 9.96 119.18 11.59Q119.18 13.22 119.70 13.91Q120.22 14.59 121.54 14.59L121.54 14.59ZM132.10 0Q133.22 0 133.56 0.35Q133.90 0.70 133.90 1.81Q133.90 2.93 133.55 3.28Q133.20 3.62 132.08 3.62Q130.97 3.62 130.62 3.26Q130.27 2.90 130.27 1.80Q130.27 0.70 130.62 0.35Q130.97 0 132.10 0ZM133.63 5.74L133.63 18.94L130.51 18.94L130.51 5.74L133.63 5.74ZM147.74 9.74L147.74 18.94L144.62 18.94L144.62 10.18Q144.62 9 144.14 8.57Q143.66 8.14 142.80 8.14L142.80 8.14L139.99 9.31L139.99 18.94L136.87 18.94L136.87 5.23L139.20 5.23L139.92 6.86L143.76 5.09Q145.37 5.09 146.56 6.28Q147.74 7.46 147.74 9.74L147.74 9.74ZM155.95 0.07L158.88 0.07L152.04 20.71L149.11 20.71L155.95 0.07Z" transform="translate(51, 5.032)"></path></svg>