<?xml version="1.0"?>
<!--Icons from directory ""-->
<svg xmlns="http://www.w3.org/2000/svg" width="150" height="750" viewBox="0 0 150 750"><svg width="150" height="150" viewBox="0 0 20 20" id="back" y="0"><path style="text-align:start;line-height:125%;-inkscape-font-specification:Segoe UI Symbol" d="M1.732 9.996c0 .756.1 1.484.299 2.184.2.7.477 1.358.835 1.974a8.251 8.251 0 0 0 2.958 2.976c.613.36 1.27.64 1.974.84.703.198 1.433.298 2.189.298s1.484-.1 2.184-.299c.7-.2 1.356-.479 1.965-.84a8.514 8.514 0 0 0 1.675-1.296 8.208 8.208 0 0 0 1.301-1.68c.36-.615.642-1.272.844-1.973.202-.7.303-1.428.303-2.184 0-.756-.1-1.485-.299-2.185-.199-.7-.479-1.357-.84-1.97a8.236 8.236 0 0 0-1.296-1.67 8.376 8.376 0 0 0-1.679-1.292 8.478 8.478 0 0 0-1.974-.84c-.7-.199-1.428-.298-2.184-.298-.756 0-1.486.1-2.19.299-.702.199-1.36.477-1.973.835a8.196 8.196 0 0 0-2.958 2.962 8.595 8.595 0 0 0-.835 1.974c-.2.7-.3 1.429-.3 2.185zm2.77.035v-.035l4.025-4.211h2.92L8.377 8.923h6.673v2.18H8.378l3.068 3.139H8.527zM0 9.987c0-.909.12-1.785.36-2.629.24-.844.58-1.636 1.02-2.378a10.241 10.241 0 0 1 3.6-3.6C5.722.94 6.516.6 7.363.36A9.6 9.6 0 0 1 9.996 0a9.6 9.6 0 0 1 2.633.36 10.092 10.092 0 0 1 4.413 2.576c.612.61 1.138 1.285 1.578 2.027.44.741.78 1.535 1.02 2.382.24.847.36 1.728.36 2.642 0 .908-.12 1.786-.36 2.633s-.58 1.64-1.02 2.382c-.44.742-.966 1.418-1.578 2.031a10.138 10.138 0 0 1-4.413 2.602A9.492 9.492 0 0 1 9.996 20a9.6 9.6 0 0 1-2.633-.36 10.028 10.028 0 0 1-4.409-2.589A10.356 10.356 0 0 1 1.38 15.02a9.987 9.987 0 0 1-1.02-2.387A9.68 9.68 0 0 1 0 9.987z" font-size="11.385" font-weight="400" letter-spacing="0" word-spacing="0" fill="#f5f5f5" font-family="Segoe UI Symbol" stroke="none" stroke-width="2.23"/></svg><svg viewBox="0 0 256 256" height="150" width="150" id="folder" y="150"><path d="M4.5 34.74a4.5 4.5 0 0 0-4.5 4.5v177.53a4.5 4.5 0 0 0 .006.1 4.5 4.5 0 0 0 .014.28 4.5 4.5 0 0 0 .02.17 4.5 4.5 0 0 0 .034.24 4.5 4.5 0 0 0 .047.23 4.5 4.5 0 0 0 .057.22 4.5 4.5 0 0 0 .064.2 4.5 4.5 0 0 0 .082.23 4.5 4.5 0 0 0 .082.19 4.5 4.5 0 0 0 .102.21 4.5 4.5 0 0 0 .103.19 4.5 4.5 0 0 0 .133.21 4.5 4.5 0 0 0 .106.15 4.5 4.5 0 0 0 .156.21 4.5 4.5 0 0 0 .129.15 4.5 4.5 0 0 0 .168.18 4.5 4.5 0 0 0 .144.14 4.5 4.5 0 0 0 .194.17 4.5 4.5 0 0 0 .148.12 4.5 4.5 0 0 0 .203.14 4.5 4.5 0 0 0 .186.12 4.5 4.5 0 0 0 .197.11 4.5 4.5 0 0 0 .195.1 4.5 4.5 0 0 0 .213.09 4.5 4.5 0 0 0 .186.08 4.5 4.5 0 0 0 .25.08 4.5 4.5 0 0 0 .191.05 4.5 4.5 0 0 0 .225.05 4.5 4.5 0 0 0 .224.04 4.5 4.5 0 0 0 .237.03 4.5 4.5 0 0 0 .248.01 4.5 4.5 0 0 0 .156.01h211.25a4.5 4.5 0 0 0 4.31-3.2l35.75-119.18a4.5 4.5 0 0 0-4.31-5.796h-32.88V56.496a4.5 4.5 0 0 0-4.5-4.5H91.46l.007-12.756a4.5 4.5 0 0 0-4.5-4.5H4.5zm119.73 67.35h121.22l-26.83 89.45-6.22 20.73H10.9l30.079-83.88h56.144a4.5 4.5 0 0 0 .449-.02 4.5 4.5 0 0 0 2.798-1.36l23.86-24.92z" fill-rule="evenodd" fill="#89b1d3"/></svg><svg viewBox="0 -256 1950 1950" width="150" height="150" id="group" y="300"><path d="M608.186 719.898q-162 5-265 128h-134q-82 0-138-40.5t-56-118.5q0-353 124-353 6 0 43.5 21t97.5 42.5q60 21.5 119 21.5 67 0 133-23-5 37-5 66 0 139 81 256zm1071 637q0 120-73 189.5t-194 69.5h-874q-121 0-194-69.5t-73-189.5q0-53 3.5-103.5t14-109q10.5-58.5 26.5-108.5t43-97.5q27-47.5 62-81t85.5-53.5q50.5-20 111.5-20 10 0 43 21.5t73 48q40 26.5 107 48t135 21.5q68 0 135-21.5t107-48q40-26.5 73-48t43-21.5q61 0 111.5 20t85.5 53.5q35 33.5 62 81t43 97.5q16 50 26.5 108.5t14 109q3.5 50.5 3.5 103.5zm-1024-1277q0 106-75 181t-181 75q-106 0-181-75t-75-181q0-106 75-181t181-75q106 0 181 75t75 181zm704 384q0 159-112.5 271.5t-271.5 112.5q-159 0-271.5-112.5t-112.5-271.5q0-159 112.5-271.5t271.5-112.5q159 0 271.5 112.5t112.5 271.5zm576 225q0 78-56 118.5t-138 40.5h-134q-103-123-265-128 81-117 81-256 0-29-5-66 66 23 133 23 59 0 119-21.5t97.5-42.5q37.5-21 43.5-21 124 0 124 353zm-128-609q0 106-75 181t-181 75q-106 0-181-75t-75-181q0-106 75-181t181-75q106 0 181 75t75 181z" fill="#f5f5f5"/></svg><svg version="1" width="150" height="150" viewBox="0 0 62 62" id="plus" y="450"><defs><linearGradient x1="42.986" y1="7.013" x2="22.014" y2="51.987" id="plus-b" gradientUnits="userSpaceOnUse"><stop offset="0" stop-color="#a8fe9c"/><stop offset="1" stop-color="#5acf57"/></linearGradient><linearGradient x1="55.454" y1="42.753" x2="9.547" y2="16.249" id="plus-c" gradientUnits="userSpaceOnUse"><stop offset="0" stop-color="#30972b"/><stop offset="1" stop-color="#5ec75c"/></linearGradient><linearGradient id="plus-a"><stop offset="0"/><stop offset="1" stop-opacity="0"/></linearGradient></defs><circle cx="31" cy="31" r="25.8" fill="url(#plus-b)" stroke="url(#plus-c)" stroke-width="2"/><path d="M26.31 16.566v9.744h-9.744v9.38h9.744v9.744h9.38V35.69h9.744v-9.38H35.69v-9.744h-9.38z" fill="#fff"/></svg><svg viewBox="0 -256 1792 1792" width="150" height="150" id="user" y="600"><path d="M1605.424 1169.61q0 120-73 189.5t-194 69.5h-874q-121 0-194-69.5t-73-189.5q0-53 3.5-103.5t14-109q10.5-58.5 26.5-108.5t43-97.5q27-47.5 62-81t85.5-53.5q50.5-20 111.5-20 9 0 42 21.5t74.5 48q41.5 26.5 108 48t133.5 21.5q67 0 133.5-21.5t108-48q41.5-26.5 74.5-48t42-21.5q61 0 111.5 20t85.5 53.5q35 33.5 62 81t43 97.5q16 50 26.5 108.5t14 109q3.5 50.5 3.5 103.5zm-320-893q0 159-112.5 271.5t-271.5 112.5q-159 0-271.5-112.5t-112.5-271.5q0-159 112.5-271.5t271.5-112.5q159 0 271.5 112.5t112.5 271.5z" fill="#f5f5f5"/></svg></svg>
